<svg width="46" height="50" viewBox="0 0 46 50" fill="none" xmlns="http://www.w3.org/2000/svg">
<path d="M23.2804 49.1545C18.0228 49.1545 12.7317 49.1545 7.47407 49.1545C3.25458 49.1545 1.01087 46.9188 1.01087 42.6809C0.977386 34.9726 1.01087 27.1975 0.977386 19.4558C0.977386 17.0533 1.84808 15.2179 3.79038 13.7831C9.01452 9.9456 14.1717 6.04139 19.3958 2.17055C22.1419 0.135025 24.419 0.135025 27.1651 2.13718C32.3557 6.00802 37.5464 9.91223 42.7705 13.7497C44.7128 15.1846 45.617 17.0199 45.617 19.4225C45.5835 27.1641 45.617 34.9058 45.5835 42.6475C45.5835 46.8854 43.3398 49.1211 39.1538 49.1211C33.8292 49.1879 28.5716 49.1545 23.2804 49.1545ZM9.31592 46.2514C9.31592 45.4171 9.31592 44.8165 9.31592 44.2159C9.31592 36.8746 9.31592 29.5 9.31592 22.1588C9.31592 19.6561 10.3206 18.6883 12.8657 18.655C15.5782 18.655 18.2907 18.655 21.0367 18.655C23.8497 18.655 24.6535 19.4892 24.6535 22.3256C24.6535 25.6292 24.6535 28.9327 24.6535 32.4365C27.5669 32.4365 30.3464 32.4365 33.0925 32.4365C36.4078 32.4365 37.2115 33.2707 37.2115 36.5409C37.2115 39.7444 37.2115 42.9145 37.2115 46.218C38.1492 46.218 38.8524 46.218 39.5556 46.218C41.6319 46.1846 42.6031 45.2503 42.6366 43.1814C42.6366 35.106 42.7035 27.0307 42.5696 18.9553C42.5696 18.021 41.8998 16.7863 41.1631 16.219C35.9054 12.148 30.5474 8.21039 25.2228 4.23945C23.8832 3.23837 22.6107 3.23837 21.2712 4.23945C15.9131 8.27713 10.5215 12.2481 5.19688 16.3191C4.56061 16.7863 3.95783 17.754 3.92434 18.4881C3.82387 26.8972 3.85736 35.3063 3.89085 43.7153C3.89085 45.1836 4.92898 46.1513 6.43594 46.2514C7.34012 46.3181 8.21081 46.2514 9.31592 46.2514ZM21.7735 32.3698C21.7735 28.7325 21.7735 25.162 21.7735 21.5581C18.5586 21.5581 15.4777 21.5581 12.3633 21.5581C12.3633 25.2287 12.3633 28.7659 12.3633 32.3698C15.5447 32.3698 18.6256 32.3698 21.7735 32.3698ZM12.3298 35.3063C12.3298 39.0102 12.3298 42.5808 12.3298 46.1513C15.5447 46.1513 18.6591 46.1513 21.74 46.1513C21.74 42.4473 21.74 38.9101 21.74 35.3063C18.5921 35.3063 15.5447 35.3063 12.3298 35.3063ZM34.2645 35.3396C31.0162 35.3396 27.9353 35.3396 24.7539 35.3396C24.7539 38.9769 24.7539 42.5474 24.7539 46.1513C27.9688 46.1513 31.0832 46.1513 34.2645 46.1513C34.2645 42.514 34.2645 39.0102 34.2645 35.3396Z" fill="black" stroke="#F9F9FE" stroke-width="0.436"/>
<path d="M21.7738 32.3698C18.6594 32.3698 15.5785 32.3698 12.3636 32.3698C12.3636 28.7659 12.3636 25.2287 12.3636 21.5581C15.478 21.5581 18.5589 21.5581 21.7738 21.5581C21.7738 25.162 21.7738 28.6991 21.7738 32.3698Z" fill="white" stroke="#F9F9FE" stroke-width="0.436"/>
<path d="M12.3296 35.3064C15.5444 35.3064 18.5918 35.3064 21.7397 35.3064C21.7397 38.9103 21.7397 42.4474 21.7397 46.1514C18.6588 46.1514 15.5444 46.1514 12.3296 46.1514C12.3296 42.5809 12.3296 39.0104 12.3296 35.3064Z" fill="white" stroke="#F9F9FE" stroke-width="0.436"/>
<path d="M34.2645 35.3396C34.2645 38.9769 34.2645 42.514 34.2645 46.1512C31.1166 46.1512 27.9687 46.1512 24.7539 46.1512C24.7539 42.5474 24.7539 39.0102 24.7539 35.3396C27.9018 35.3396 30.9827 35.3396 34.2645 35.3396Z" fill="white" stroke="#F9F9FE" stroke-width="0.436"/>
</svg>
