<svg width="62" height="62" viewBox="0 0 62 62" fill="none" xmlns="http://www.w3.org/2000/svg">
<g clip-path="url(#clip0_10_4653)">
<path d="M54.6298 21.0343L54.6599 21.3662L54.9882 21.4242C58.2556 22.0008 60.732 24.6819 60.732 28.1161C60.732 31.7412 57.6717 34.8015 54.0466 34.8015H42.2746C41.7633 34.8015 41.3711 34.6329 41.1078 34.3696C40.8445 34.1063 40.676 33.7141 40.676 33.2028C40.676 32.6915 40.8445 32.2993 41.1078 32.036C41.3711 31.7727 41.7633 31.6041 42.2746 31.6041H54.0466C54.984 31.6041 55.8999 31.1968 56.5794 30.5739C57.2592 29.9508 57.7381 29.0777 57.7381 28.1161C57.7381 26.2476 56.1186 24.6281 54.2501 24.6281H38.6122C38.1009 24.6281 37.7087 24.4596 37.4454 24.1963C37.1821 23.933 37.0136 23.5408 37.0136 23.0295C37.0136 22.5181 37.1821 22.1259 37.4454 21.8626C37.7087 21.5993 38.1009 21.4308 38.6122 21.4308H50.9946H51.534L51.421 20.9034C50.7723 17.8766 48.3821 15.6913 45.3286 15.4732L45.3131 15.4721H45.2976C44.6784 15.4721 44.043 14.9928 43.8893 14.3781L43.8876 14.3711L43.8856 14.3641C42.2056 8.48419 36.7476 4.28147 30.648 4.28147C24.5483 4.28147 19.0903 8.48419 17.4103 14.3641L17.4083 14.3711L17.4066 14.3781C17.2529 14.9928 16.6175 15.4721 15.9984 15.4721H15.9828L15.9673 15.4732C12.9247 15.6906 10.3096 18.0736 9.87036 20.9285L9.79309 21.4308H10.3013H22.8872C23.3985 21.4308 23.7907 21.5993 24.054 21.8626C24.3173 22.1259 24.4858 22.5181 24.4858 23.0295C24.4858 23.5408 24.3173 23.933 24.054 24.1963C23.7907 24.4596 23.3985 24.6281 22.8872 24.6281H7.24929C5.38076 24.6281 3.76129 26.2476 3.76129 28.1161C3.76129 29.9847 5.38076 31.6041 7.24929 31.6041H19.0213C19.5326 31.6041 19.9248 31.7727 20.1881 32.036C20.4514 32.2993 20.62 32.6915 20.62 33.2028C20.62 33.7141 20.4514 34.1063 20.1881 34.3696C19.9248 34.6329 19.5326 34.8015 19.0213 34.8015H7.24929C3.62422 34.8015 0.56396 31.7412 0.56396 28.1161C0.56396 24.6618 3.05623 21.8074 6.2829 21.4278L6.63415 21.3865L6.66617 21.0343C7.05504 16.7567 10.3657 13.249 14.4522 12.4706L14.6957 12.4242L14.7804 12.1913C17.1601 5.64696 23.5088 1.08413 30.648 1.08413C37.7871 1.08413 44.1358 5.64696 46.5155 12.1913L46.6011 12.4265L46.8473 12.4712C51.1264 13.2492 54.2401 16.7486 54.6298 21.0343Z" fill="#011839" stroke="#F9F9FE" stroke-width="0.872"/>
</g>
<defs>
<clipPath id="clip0_10_4653">
<rect width="61.04" height="61.04" fill="white" transform="translate(0.128906 0.647949)"/>
</clipPath>
</defs>
</svg>
