<svg width="40" height="62" viewBox="0 0 40 62" fill="none" xmlns="http://www.w3.org/2000/svg">
<path d="M11.9068 25.8196L11.5985 26.1279L11.9068 25.8196C11.2632 25.176 11.2632 24.2313 11.9068 23.5877L24.1148 11.3797C24.7584 10.7361 25.7031 10.7361 26.3467 11.3797C26.9903 12.0233 26.9903 12.968 26.3467 13.6116L14.1387 25.8196C13.961 25.9974 13.8006 26.1133 13.6341 26.1873C13.4695 26.2605 13.2771 26.3023 13.0227 26.3023C12.7684 26.3023 12.576 26.2605 12.4114 26.1873C12.2449 26.1133 12.0845 25.9974 11.9068 25.8196Z" fill="white" stroke="#0D6AA0" stroke-width="0.872"/>
<path d="M14.6214 12.4957V13.513C14.6214 14.0243 14.4529 14.4165 14.1896 14.6798C13.9263 14.9431 13.5341 15.1117 13.0227 15.1117C12.5114 15.1117 12.1192 14.9431 11.8559 14.6798C11.5926 14.4165 11.4241 14.0243 11.4241 13.513V12.4957C11.4241 11.9843 11.5926 11.5921 11.8559 11.3288C12.1192 11.0655 12.5114 10.897 13.0227 10.897C13.5341 10.897 13.9263 11.0655 14.1896 11.3288C14.4529 11.5921 14.6214 11.9843 14.6214 12.4957Z" fill="white" stroke="#0D6AA0" stroke-width="0.872"/>
<path d="M23.6321 24.7036V23.6863C23.6321 23.175 23.8006 22.7827 24.0639 22.5194C24.3272 22.2561 24.7194 22.0876 25.2307 22.0876C25.7421 22.0876 26.1343 22.2561 26.3976 22.5194C26.6609 22.7827 26.8294 23.175 26.8294 23.6863V24.7036C26.8294 25.2149 26.6609 25.6072 26.3976 25.8704C26.1343 26.1337 25.7421 26.3023 25.2307 26.3023C24.7194 26.3023 24.3272 26.1337 24.0639 25.8704C23.8006 25.6072 23.6321 25.2149 23.6321 24.7036Z" fill="white" stroke="#0D6AA0" stroke-width="0.872"/>
<path d="M37.0025 6.3916V33.2071C36.9686 33.1681 36.9333 33.1302 36.8966 33.0935C36.4477 32.6447 35.8226 32.4063 35.1131 32.4063H33.8051V6.3916C33.8051 5.68212 33.5667 5.05701 33.1179 4.60817C32.6691 4.15933 32.0439 3.92093 31.3345 3.92093H6.91845C6.20897 3.92093 5.58386 4.15933 5.13502 4.60817C4.68618 5.057 4.44779 5.68212 4.44779 6.3916V30.8076C4.44779 31.5171 4.68618 32.1422 5.13502 32.591C5.58386 33.0399 6.20897 33.2783 6.91845 33.2783H32.9331V34.4991C32.9331 35.2085 33.1715 35.8337 33.6204 36.2825C33.6898 36.3519 33.7635 36.4163 33.841 36.4756H6.91845C3.70032 36.4756 1.25045 34.0257 1.25045 30.8076V6.3916C1.25045 3.17346 3.70032 0.723598 6.91845 0.723598H31.3345C34.5526 0.723598 37.0025 3.17346 37.0025 6.3916ZM33.8051 34.4991V33.2783H35.1131C35.6244 33.2783 36.0167 33.4468 36.28 33.7101C36.5433 33.9734 36.7118 34.3656 36.7118 34.8769C36.7118 35.2047 36.6426 35.4835 36.5235 35.7107C36.2614 35.9482 35.8854 36.0977 35.4038 36.0977C34.8925 36.0977 34.5002 35.9292 34.237 35.6659C33.9737 35.4026 33.8051 35.0104 33.8051 34.4991Z" fill="white" stroke="#0D6AA0" stroke-width="0.872"/>
<path d="M32.6425 57.2584V57.6944H33.0785H37.1478C37.6591 57.6944 38.0513 57.8629 38.3146 58.1262C38.5779 58.3895 38.7465 58.7817 38.7465 59.293C38.7465 59.8043 38.5779 60.1966 38.3146 60.4599C38.0513 60.7231 37.6591 60.8917 37.1478 60.8917H4.59312C4.0818 60.8917 3.68958 60.7231 3.42629 60.4599C3.16299 60.1966 2.99446 59.8043 2.99446 59.293C2.99446 58.7817 3.16299 58.3895 3.42629 58.1262C3.68958 57.8629 4.0818 57.6944 4.59312 57.6944H8.66246H9.09846V57.2584V49.1197C9.09846 48.6084 9.26699 48.2161 9.53029 47.9528C9.79358 47.6896 10.1858 47.521 10.6971 47.521C11.2084 47.521 11.6007 47.6896 11.864 47.9528C12.1273 48.2161 12.2958 48.6084 12.2958 49.1197V57.2584V57.6944H12.7318H18.8358H19.2718V57.2584V43.0157C19.2718 42.5044 19.4403 42.1121 19.7036 41.8489C19.9669 41.5856 20.3591 41.417 20.8705 41.417C21.3818 41.417 21.774 41.5856 22.0373 41.8488C22.3006 42.1121 22.4691 42.5044 22.4691 43.0157V57.2584V57.6944H22.9051H29.0091H29.4451V57.2584V55.2237C29.4451 54.7124 29.6137 54.3201 29.877 54.0568C30.1403 53.7936 30.5325 53.625 31.0438 53.625C31.5551 53.625 31.9473 53.7936 32.2106 54.0568C32.4739 54.3201 32.6425 54.7124 32.6425 55.2237V57.2584Z" fill="white" stroke="#0D6AA0" stroke-width="0.872"/>
<path d="M34.3873 30.8077H36.5673V36.0397H33.5153L34.3873 30.8077Z" fill="white"/>
<path d="M36.5673 32.9878L36.5673 36.0398L31.3353 36.0398L31.3353 33.8598L36.5673 32.9878Z" fill="white"/>
</svg>
