<svg width="78" height="47" viewBox="0 0 78 47" fill="none" xmlns="http://www.w3.org/2000/svg">
<path d="M46.1261 25.8572L45.5184 26.7079L46.4643 27.153C50.8373 29.2109 53.9042 33.5726 53.9042 38.6856V40.0547C53.9042 43.4065 51.2827 46.028 47.9309 46.028H28.7639C25.4121 46.028 22.7906 43.4065 22.7906 40.0547V38.6856C22.7906 33.5726 25.8575 29.2109 30.2305 27.153L31.2662 26.6656L30.5213 25.7965C29.0257 24.0517 28.2669 21.7939 28.2669 19.5187C28.2669 13.9764 32.8051 9.43816 38.3474 9.43816C43.8897 9.43816 48.4279 13.9764 48.4279 19.5187C48.4279 22.0037 47.4404 24.0171 46.1261 25.8572ZM44.6957 19.5187C44.6957 16.0252 41.841 13.1704 38.3474 13.1704C34.8539 13.1704 31.9991 16.0252 31.9991 19.5187C31.9991 23.0122 34.8539 25.867 38.3474 25.867C41.841 25.867 44.6957 23.0122 44.6957 19.5187ZM47.9309 42.2958C48.5398 42.2958 49.1149 42.089 49.54 41.6639C49.9652 41.2387 50.1719 40.6636 50.1719 40.0547V38.6856C50.1719 33.5492 46.222 29.5992 41.0855 29.5992H35.6093C30.4729 29.5992 26.5229 33.5492 26.5229 38.6856V40.0547C26.5229 40.6636 26.7296 41.2387 27.1548 41.6639C27.5799 42.089 28.1551 42.2958 28.7639 42.2958H47.9309Z" fill="#011839" stroke="#F9F9FE" stroke-width="1.744"/>
<path d="M71.4169 15.4009L70.7822 16.1626L71.6186 16.6948C74.3847 18.4551 76.1434 21.4664 76.1434 24.995V26.3641C76.1434 29.7159 73.5218 32.3374 70.17 32.3374H59.2175C55.8657 32.3374 53.2442 29.7159 53.2442 26.3641V24.995C53.2442 21.4664 55.0029 18.4551 57.769 16.6948L58.6054 16.1626L57.9707 15.4009C56.729 13.9109 55.9823 11.9168 55.9823 9.93527C55.9823 5.21441 59.9729 1.22381 64.6938 1.22381C69.4146 1.22381 73.4053 5.21441 73.4053 9.93527C73.4053 12.1772 72.6676 13.9 71.4169 15.4009ZM69.673 9.93527C69.673 7.26318 67.3659 4.95607 64.6938 4.95607C62.0217 4.95607 59.7146 7.26318 59.7146 9.93527C59.7146 12.6074 62.0217 14.9145 64.6938 14.9145C67.3659 14.9145 69.673 12.6074 69.673 9.93527ZM70.17 28.6051C70.7789 28.6051 71.3541 28.3984 71.7792 27.9732C72.2043 27.5481 72.4111 26.973 72.4111 26.3641V24.995C72.4111 21.5015 69.5564 18.6467 66.0628 18.6467H63.3247C59.8312 18.6467 56.9764 21.5015 56.9764 24.995V26.3641C56.9764 26.973 57.1832 27.5481 57.6083 27.9732C58.0335 28.3984 58.6086 28.6051 59.2175 28.6051H70.17Z" fill="#011839" stroke="#F9F9FE" stroke-width="1.744"/>
<path d="M19.3259 15.4009L18.6912 16.1626L19.5277 16.6948C22.2938 18.4551 24.0525 21.4664 24.0525 24.995V26.3641C24.0525 29.7159 21.4309 32.3374 18.0791 32.3374H7.12659C3.77479 32.3374 1.15325 29.7159 1.15325 26.3641V24.995C1.15325 21.4664 2.91193 18.4551 5.67805 16.6948L6.51448 16.1626L5.87978 15.4009C4.63806 13.9109 3.89138 11.9168 3.89138 9.93527C3.89138 5.21441 7.88199 1.22381 12.6029 1.22381C17.3237 1.22381 21.3143 5.21441 21.3143 9.93527C21.3143 11.9168 20.5676 13.9109 19.3259 15.4009ZM17.5821 9.93527C17.5821 7.26318 15.275 4.95607 12.6029 4.95607C9.93075 4.95607 7.62365 7.26318 7.62365 9.93527C7.62365 12.6074 9.93075 14.9145 12.6029 14.9145C15.275 14.9145 17.5821 12.6074 17.5821 9.93527ZM18.0791 28.6051C18.688 28.6051 19.2632 28.3984 19.6883 27.9732C20.1134 27.5481 20.3202 26.973 20.3202 26.3641V24.995C20.3202 21.5015 17.4655 18.6467 13.9719 18.6467H11.2338C7.74025 18.6467 4.88552 21.5015 4.88552 24.995V26.3641C4.88552 26.973 5.09228 27.5481 5.51742 27.9732C5.94255 28.3984 6.51771 28.6051 7.12659 28.6051H18.0791Z" fill="#011839" stroke="#F9F9FE" stroke-width="1.744"/>
</svg>
