<svg width="62" height="62" viewBox="0 0 62 62" fill="none" xmlns="http://www.w3.org/2000/svg">
<g clip-path="url(#clip0_0_177)">
<path d="M25.1029 31.2201H37.3109C39.9186 31.2201 41.9615 33.263 41.9615 35.8707V50.1134C41.9615 52.7211 39.9186 54.7641 37.3109 54.7641H25.1029C22.4951 54.7641 20.4522 52.7211 20.4522 50.1134V35.8707C20.4522 33.263 22.4951 31.2201 25.1029 31.2201ZM37.3109 51.5667C37.7151 51.5667 38.0859 51.4301 38.3567 51.1593C38.6275 50.8885 38.7642 50.5177 38.7642 50.1134V35.8707C38.7642 35.4664 38.6275 35.0957 38.3567 34.8249C38.0859 34.5541 37.7151 34.4174 37.3109 34.4174H25.1029C24.6986 34.4174 24.3278 34.5541 24.057 34.8249C23.7862 35.0957 23.6495 35.4664 23.6495 35.8707V50.1134C23.6495 50.5177 23.7862 50.8885 24.057 51.1593C24.3278 51.4301 24.6986 51.5667 25.1029 51.5667H37.3109Z" fill="#011839" stroke="#F9F9FE" stroke-width="0.872"/>
<path d="M29.1725 38.3415H33.2418C33.7531 38.3415 34.1453 38.51 34.4086 38.7733C34.6719 39.0366 34.8405 39.4288 34.8405 39.9401C34.8405 40.4514 34.6719 40.8437 34.4086 41.107C34.1453 41.3703 33.7531 41.5388 33.2418 41.5388H29.1725C28.6611 41.5388 28.2689 41.3703 28.0056 41.107C27.7423 40.8437 27.5738 40.4514 27.5738 39.9401C27.5738 39.4288 27.7423 39.0366 28.0056 38.7733C28.2689 38.51 28.6611 38.3415 29.1725 38.3415Z" fill="#011839" stroke="#F9F9FE" stroke-width="0.872"/>
<path d="M29.1725 44.4455H33.2418C33.7531 44.4455 34.1453 44.614 34.4086 44.8773C34.6719 45.1406 34.8405 45.5328 34.8405 46.0441C34.8405 46.5554 34.6719 46.9477 34.4086 47.211C34.1453 47.4743 33.7531 47.6428 33.2418 47.6428H29.1725C28.6611 47.6428 28.2689 47.4743 28.0056 47.211C27.7423 46.9477 27.5738 46.5554 27.5738 46.0441C27.5738 45.5328 27.7423 45.1406 28.0056 44.8773C28.2689 44.614 28.6611 44.4455 29.1725 44.4455Z" fill="#011839" stroke="#F9F9FE" stroke-width="0.872"/>
<path d="M53.2976 20.6109V21.0469H53.7336H59.8376C60.3489 21.0469 60.7411 21.2154 61.0044 21.4787C61.2677 21.742 61.4362 22.1342 61.4362 22.6456C61.4362 23.1569 61.2677 23.5491 61.0044 23.8124C60.7411 24.0757 60.3489 24.2442 59.8376 24.2442H2.86688C2.35556 24.2442 1.96334 24.0757 1.70005 23.8124C1.43675 23.5491 1.26821 23.1569 1.26821 22.6456C1.26821 22.1342 1.43675 21.742 1.70005 21.4787C1.96334 21.2154 2.35556 21.0469 2.86688 21.0469H8.97088H9.40688V20.6109V12.4722C9.40688 11.9609 9.57542 11.5687 9.83871 11.3054C10.102 11.0421 10.4942 10.8736 11.0055 10.8736H19.1442C19.6555 10.8736 20.0478 11.0421 20.3111 11.3054C20.5743 11.5687 20.7429 11.9609 20.7429 12.4722V20.6109V21.0469H21.1789H25.2482H25.6842V20.6109V2.29889C25.6842 1.78757 25.8528 1.39535 26.116 1.13205C26.3793 0.868758 26.7716 0.700221 27.2829 0.700221H35.4216C35.9329 0.700221 36.3251 0.868758 36.5884 1.13205C36.8517 1.39535 37.0202 1.78757 37.0202 2.29889V20.6109V21.0469H37.4562H41.5256H41.9616V20.6109V8.40289C41.9616 7.89157 42.1301 7.49935 42.3934 7.23605C42.6567 6.97276 43.0489 6.80422 43.5602 6.80422H51.6989C52.2102 6.80422 52.6024 6.97276 52.8657 7.23605C53.129 7.49935 53.2976 7.89157 53.2976 8.40289V20.6109ZM45.5949 10.0016H45.1589V10.4376V20.6109V21.0469H45.5949H49.6642H50.1002V20.6109V10.4376V10.0016H49.6642H45.5949ZM29.3175 3.89755H28.8815V4.33355V20.6109V21.0469H29.3175H33.3869H33.8229V20.6109V4.33355V3.89755H33.3869H29.3175ZM13.0402 14.0709H12.6042V14.5069V20.6109V21.0469H13.0402H17.1095H17.5455V20.6109V14.5069V14.0709H17.1095H13.0402Z" fill="#011839" stroke="#F9F9FE" stroke-width="0.872"/>
</g>
<defs>
<clipPath id="clip0_0_177">
<rect width="61.04" height="61.04" fill="white" transform="translate(0.832031 0.26416)"/>
</clipPath>
</defs>
</svg>
