<svg width="54" height="54" viewBox="0 0 54 54" fill="none" xmlns="http://www.w3.org/2000/svg">
<path d="M33.3973 51.8514L33.412 51.8485C33.7666 51.7776 34.0783 51.523 34.2863 51.1487C34.4948 50.7735 34.574 50.3187 34.4942 49.9199C34.4233 49.5653 34.1687 49.2536 33.7944 49.0456C33.4269 48.8415 32.9831 48.7613 32.5904 48.833C31.327 49.2501 29.8678 49.4566 28.6143 49.4566H28.606H28.5976H28.5893H28.581H28.5726H28.5643H28.556H28.5477H28.5394H28.5311H28.5228H28.5145H28.5062H28.4979H28.4896H28.4814H28.4731H28.4648H28.4566H28.4483H28.44H28.4318H28.4236H28.4153H28.4071H28.3988H28.3906H28.3824H28.3742H28.366H28.3577H28.3495H28.3413H28.3331H28.3249H28.3167H28.3086H28.3004H28.2922H28.284H28.2758H28.2677H28.2595H28.2514H28.2432H28.235H28.2269H28.2188H28.2106H28.2025H28.1943H28.1862H28.1781H28.17H28.1618H28.1537H28.1456H28.1375H28.1294H28.1213H28.1132H28.1051H28.097H28.0889H28.0809H28.0728H28.0647H28.0566H28.0486H28.0405H28.0324H28.0244H28.0163H28.0083H28.0002H27.9922H27.9841H27.9761H27.9681H27.96H27.952H27.944H27.9359H27.9279H27.9199H27.9119H27.9039H27.8959H27.8879H27.8799H27.8719H27.8639H27.8559H27.8479H27.8399H27.8319H27.8239H27.816H27.808H27.8H27.7921H27.7841H27.7761H27.7682H27.7602H27.7522H27.7443H27.7363H27.7284H27.7205H27.7125H27.7046H27.6966H27.6887H27.6808H27.6728H27.6649H27.657H27.6491H27.6412H27.6332H27.6253H27.6174H27.6095H27.6016H27.5937H27.5858H27.5779H27.57H27.5621H27.5542H27.5463H27.5384H27.5305H27.5227H27.5148H27.5069H27.499H27.4911H27.4833H27.4754H27.4675H27.4597H27.4518H27.4439H27.4361H27.4282H27.4204H27.4125H27.4047H27.3968H27.389H27.3811H27.3733H27.3654H27.3576H27.3497H27.3419H27.3341H27.3262H27.3184H27.3106H27.3027H27.2949H27.2871H27.2793H27.2715H27.2636H27.2558H27.248H27.2402H27.2324H27.2246H27.2167H27.2089H27.2011H27.1933H27.1855H27.1777H27.1699H27.1621H27.1543H27.1465H27.1387H27.1309H27.1231H27.1153H27.1075H27.0997H27.092H27.0842H27.0764H27.0686H27.0608H27.053H27.0452H27.0375H27.0297H27.0219H27.0141H27.0063H26.9986H26.9908H26.983H26.9752H26.9675H26.9597H26.9519H26.9442H26.9364H26.9286H26.9209H26.9131H26.9053H26.8976H26.8898H26.882H26.8743H26.8665H26.8587H26.851H26.8432H26.8355H26.8277H26.8199H26.8122H26.8044H26.7967H26.7889H26.7812H26.7734H26.7657H26.7579H26.7501H26.7424H26.7346H26.7269H26.7191H26.7114H26.7036H26.6959H26.6881H26.6804H26.6726H26.6649H26.6571H26.6494H26.6416H26.6339H26.6261H26.6184H26.6106H26.6029H26.5951H26.5874H26.5796H26.5719H26.5641H26.5564H26.5486H26.5409H26.5331H26.5254H26.5176H26.5099H26.5021H26.4944H26.4866H26.4789H26.4711H26.4634H26.4556H26.4479H26.4401H26.4324H26.4246H26.4169H26.4091H26.4014H26.3936H26.3859H26.3781H26.3703H26.3626H26.3548H26.3471H26.3393H26.3316H26.3238H26.316H26.3083H26.3005H26.2928H26.285H26.2772H26.2695H26.2617H26.2539H26.2462H26.2384H26.2306H26.2229H26.2151H26.2073H26.1996H26.1918H26.184H26.1762H26.1685H26.1607H26.1529H26.1451H26.1374H26.1296H26.1218H26.114H26.1062H26.0985H26.0907H26.0829H26.0751H26.0673H26.0595H26.0517H26.0439H26.0361H26.0284H26.0206H26.0128H26.005H25.9972H25.9894H25.9816H25.9738H25.966H25.9581H25.9503H25.9425H25.9347H25.9269H25.9191H25.9113H25.9035H25.8956H25.8878H25.88H25.8722H25.8643H25.8565H25.8487H25.8409H25.833H25.8252H25.8174H25.8095H25.8017H25.7938H25.786H25.7782H25.7703H25.7625H25.7546H25.7468H25.7389H25.731H25.7232H25.7153H25.7075H25.6996H25.6917H25.6839H25.676H25.6681H25.6602H25.6524H25.6445H25.6366H25.6287H25.6208H25.6129H25.6051H25.5972H25.5893H25.5814H25.5735H25.5656H25.5577H25.5498H25.5419H25.5339H25.526H25.5181H25.5102H25.5023H25.4943H25.4864H25.4785H25.4706H25.4626H25.4547H25.4468H25.4388H25.4309H25.4229H25.415H25.407H25.3991H25.3911H25.3831H25.3752H25.3672H25.3592H25.3513H25.3433H25.3353H25.3273H25.3194H25.3114H25.3034H25.2954H25.2874H25.2794H25.2714H25.2634H25.2554H25.2474H25.2394H25.2313H25.2233H25.2153H25.2073H25.1992H25.1912H25.1832H25.1751H25.1671H25.159H25.151H25.1429H25.1349H25.1268H25.1188H25.1107H25.1026H25.0946H25.0865H25.0784H25.0703H25.0622H25.0541H25.0461H25.038H25.0299H25.0218H25.0136H25.0055H24.9974H24.9893H24.9812H24.9731H24.9649H24.9568H24.9487H24.9405H24.9324H24.9242H24.9161H24.9079H24.8997H24.8916H24.8834H24.8752H24.8671H24.8589H24.8507H24.8425H24.8343H24.8261H24.8179H24.8097H24.8015H24.7933H24.7851H24.7769H24.7687H24.7604H24.7522H24.744H24.7357H24.7275H24.7192H24.711H24.7027H24.6944H24.6862H24.6779H24.6696H24.6614H24.6531H24.6448H24.6365H24.6282H24.6199H24.6116H24.6033H24.595H24.5866H24.5783H24.57H24.5616H24.5533H24.545H24.5244L24.504 49.4546C13.5156 48.418 4.79769 39.7092 3.96705 28.9108L3.96577 28.8941V28.8774V28.869V28.8607V28.8523V28.844V28.8357V28.8274V28.8191V28.8107V28.8024V28.7941V28.7858V28.7775V28.7693V28.761V28.7527V28.7444V28.7361V28.7279V28.7196V28.7114V28.7031V28.6949V28.6866V28.6784V28.6701V28.6619V28.6537V28.6455V28.6372V28.629V28.6208V28.6126V28.6044V28.5962V28.588V28.5798V28.5716V28.5634V28.5553V28.5471V28.5389V28.5307V28.5226V28.5144V28.5063V28.4981V28.49V28.4818V28.4737V28.4655V28.4574V28.4493V28.4411V28.433V28.4249V28.4168V28.4087V28.4006V28.3925V28.3844V28.3763V28.3682V28.3601V28.352V28.3439V28.3358V28.3278V28.3197V28.3116V28.3036V28.2955V28.2874V28.2794V28.2713V28.2633V28.2552V28.2472V28.2392V28.2311V28.2231V28.2151V28.207V28.199V28.191V28.183V28.175V28.1669V28.1589V28.1509V28.1429V28.1349V28.1269V28.1189V28.111V28.103V28.095V28.087V28.079V28.0711V28.0631V28.0551V28.0471V28.0392V28.0312V28.0233V28.0153V28.0074V27.9994V27.9915V27.9835V27.9756V27.9676V27.9597V27.9518V27.9438V27.9359V27.928V27.9201V27.9121V27.9042V27.8963V27.8884V27.8805V27.8726V27.8647V27.8568V27.8489V27.841V27.8331V27.8252V27.8173V27.8094V27.8015V27.7936V27.7857V27.7778V27.77V27.7621V27.7542V27.7463V27.7385V27.7306V27.7227V27.7149V27.707V27.6991V27.6913V27.6834V27.6756V27.6677V27.6599V27.652V27.6442V27.6363V27.6285V27.6206V27.6128V27.605V27.5971V27.5893V27.5815V27.5736V27.5658V27.558V27.5502V27.5423V27.5345V27.5267V27.5189V27.5111V27.5032V27.4954V27.4876V27.4798V27.472V27.4642V27.4564V27.4486V27.4408V27.433V27.4252V27.4174V27.4096V27.4018V27.394V27.3862V27.3784V27.3706V27.3628V27.355V27.3472V27.3394V27.3317V27.3239V27.3161V27.3083V27.3005V27.2927V27.285V27.2772V27.2694V27.2616V27.2539V27.2461V27.2383V27.2305V27.2228V27.215V27.2072V27.1995V27.1917V27.1839V27.1762V27.1684V27.1606V27.1529V27.1451V27.1373V27.1296V27.1218V27.114V27.1063V27.0985V27.0908V27.083V27.0753V27.0675V27.0597V27.052V27.0442V27.0365V27.0287V27.021V27.0132V27.0055V26.9977V26.99V26.9822V26.9744V26.9667V26.9589V26.9512V26.9434V26.9357V26.9279V26.9202V26.9124V26.9047V26.8969V26.8892V26.8814V26.8737V26.8659V26.8582V26.8504V26.8427V26.8349V26.8272V26.8194V26.8117V26.8039V26.7962V26.7884V26.7807V26.7729V26.7652V26.7574V26.7497V26.7419V26.7342V26.7264V26.7187V26.7109V26.7032V26.6954V26.6877V26.6799V26.6722V26.6644V26.6567V26.6489V26.6412V26.6334V26.6256V26.6179V26.6101V26.6024V26.5946V26.5869V26.5791V26.5713V26.5636V26.5558V26.5481V26.5403V26.5325V26.5248V26.517V26.5092V26.5015V26.4937V26.4859V26.4782V26.4704V26.4626V26.4549V26.4471V26.4393V26.4315V26.4238V26.416V26.4082V26.4004V26.3926V26.3849V26.3771V26.3693V26.3615V26.3537V26.3459V26.3382V26.3304V26.3226V26.3148V26.307V26.2992V26.2914V26.2836V26.2758V26.268V26.2602V26.2524V26.2446V26.2368V26.229V26.2212V26.2134V26.2056V26.1978V26.19V26.1821V26.1743V26.1665V26.1587V26.1509V26.1431V26.1352V26.1274V26.1196V26.1117V26.1039V26.0961V26.0883V26.0804V26.0726V26.0647V26.0569V26.0491V26.0412V26.0334V26.0255V26.0177V26.0098V26.002V25.9941V25.9862V25.9784V25.9705V25.9627V25.9548V25.9469V25.9391V25.9312V25.9233V25.9154V25.9075V25.8997V25.8918V25.8839V25.876V25.8681V25.8602V25.8523V25.8444V25.8365V25.8286V25.8207V25.8128V25.8049V25.797V25.7891V25.7812V25.7733V25.7653V25.7574V25.7495V25.7416V25.7336V25.7257V25.7178V25.7098V25.7019V25.6939V25.686V25.678V25.6701V25.6621V25.6542V25.6462V25.6382V25.6303V25.6223V25.6143V25.6064V25.5984V25.5904V25.5824V25.5744V25.5664V25.5584V25.5505V25.5425V25.5345V25.5264V25.5184V25.5104V25.5024V25.4944V25.4864V25.4784V25.4703V25.4623V25.4543V25.4462V25.4382V25.4302V25.4221V25.4141V25.406V25.398V25.3899V25.3818V25.3738V25.3657V25.3576V25.3495V25.3415V25.3334V25.3253V25.3172V25.3091V25.301V25.2929V25.2848V25.2767V25.2686V25.2605V25.2524V25.2442V25.2361V25.228V25.2199V25.2117V25.2036V25.1954V25.1873V25.1791V25.171V25.1628V25.1546V25.1465V25.1383V25.1301V25.122V25.1138V25.1056V25.0974V25.0892V25.081V25.0728V25.0646V25.0564V25.0482V25.0399V25.0317V25.0235V25.0153V25.007V24.9988V24.9905V24.9823V24.974V24.9658V24.9575V24.9492V24.941V24.9327V24.9244V24.9161V24.9078V24.8995V24.8913V24.8829V24.8746V24.8663V24.858V24.8497V24.8414V24.833V24.8247V24.8164V24.808V24.7916L3.967 24.7752C4.79709 13.7766 13.5135 5.06015 24.5122 4.23006L24.5285 4.22883H24.545H24.5533H24.5616H24.57H24.5783H24.5866H24.595H24.6033H24.6116H24.6199H24.6282H24.6365H24.6448H24.6531H24.6614H24.6696H24.6779H24.6862H24.6944H24.7027H24.711H24.7192H24.7275H24.7357H24.744H24.7522H24.7604H24.7687H24.7769H24.7851H24.7933H24.8015H24.8097H24.8179H24.8261H24.8343H24.8425H24.8507H24.8589H24.8671H24.8752H24.8834H24.8916H24.8997H24.9079H24.9161H24.9242H24.9324H24.9405H24.9487H24.9568H24.9649H24.9731H24.9812H24.9893H24.9974H25.0055H25.0136H25.0218H25.0299H25.038H25.0461H25.0541H25.0622H25.0703H25.0784H25.0865H25.0946H25.1026H25.1107H25.1188H25.1268H25.1349H25.1429H25.151H25.159H25.1671H25.1751H25.1832H25.1912H25.1992H25.2073H25.2153H25.2233H25.2313H25.2394H25.2474H25.2554H25.2634H25.2714H25.2794H25.2874H25.2954H25.3034H25.3114H25.3194H25.3273H25.3353H25.3433H25.3513H25.3592H25.3672H25.3752H25.3831H25.3911H25.3991H25.407H25.415H25.4229H25.4309H25.4388H25.4468H25.4547H25.4626H25.4706H25.4785H25.4864H25.4943H25.5023H25.5102H25.5181H25.526H25.5339H25.5419H25.5498H25.5577H25.5656H25.5735H25.5814H25.5893H25.5972H25.6051H25.6129H25.6208H25.6287H25.6366H25.6445H25.6524H25.6602H25.6681H25.676H25.6839H25.6917H25.6996H25.7075H25.7153H25.7232H25.731H25.7389H25.7468H25.7546H25.7625H25.7703H25.7782H25.786H25.7938H25.8017H25.8095H25.8174H25.8252H25.833H25.8409H25.8487H25.8565H25.8643H25.8722H25.88H25.8878H25.8956H25.9035H25.9113H25.9191H25.9269H25.9347H25.9425H25.9503H25.9581H25.966H25.9738H25.9816H25.9894H25.9972H26.005H26.0128H26.0206H26.0284H26.0361H26.0439H26.0517H26.0595H26.0673H26.0751H26.0829H26.0907H26.0985H26.1062H26.114H26.1218H26.1296H26.1374H26.1451H26.1529H26.1607H26.1685H26.1762H26.184H26.1918H26.1996H26.2073H26.2151H26.2229H26.2306H26.2384H26.2462H26.2539H26.2617H26.2695H26.2772H26.285H26.2928H26.3005H26.3083H26.316H26.3238H26.3316H26.3393H26.3471H26.3548H26.3626H26.3703H26.3781H26.3859H26.3936H26.4014H26.4091H26.4169H26.4246H26.4324H26.4401H26.4479H26.4556H26.4634H26.4711H26.4789H26.4866H26.4944H26.5021H26.5099H26.5176H26.5254H26.5331H26.5409H26.5486H26.5564H26.5641H26.5719H26.5796H26.5874H26.5951H26.6029H26.6106H26.6184H26.6261H26.6339H26.6416H26.6494H26.6571H26.6649H26.6726H26.6804H26.6881H26.6959H26.7036H26.7114H26.7191H26.7269H26.7346H26.7424H26.7501H26.7579H26.7657H26.7734H26.7812H26.7889H26.7967H26.8044H26.8122H26.8199H26.8277H26.8355H26.8432H26.851H26.8587H26.8665H26.8743H26.882H26.8898H26.8976H26.9053H26.9131H26.9209H26.9286H26.9364H26.9442H26.9519H26.9597H26.9675H26.9752H26.983H26.9908H26.9986H27.0063H27.0141H27.0219H27.0297H27.0375H27.0452H27.053H27.0608H27.0686H27.0764H27.0842H27.092H27.0997H27.1075H27.1153H27.1231H27.1309H27.1387H27.1465H27.1543H27.1621H27.1699H27.1777H27.1855H27.1933H27.2011H27.2089H27.2167H27.2246H27.2324H27.2402H27.248H27.2558H27.2636H27.2715H27.2793H27.2871H27.2949H27.3027H27.3106H27.3184H27.3262H27.3341H27.3419H27.3497H27.3576H27.3654H27.3733H27.3811H27.389H27.3968H27.4047H27.4125H27.4204H27.4282H27.4361H27.4439H27.4518H27.4597H27.4675H27.4754H27.4833H27.4911H27.499H27.5069H27.5148H27.5227H27.5305H27.5384H27.5463H27.5542H27.5621H27.57H27.5779H27.5858H27.5937H27.6016H27.6095H27.6174H27.6253H27.6332H27.6412H27.6491H27.657H27.6649H27.6728H27.6808H27.6887H27.6966H27.7046H27.7125H27.7205H27.7284H27.7363H27.7443H27.7522H27.7602H27.7682H27.7761H27.7841H27.7921H27.8H27.808H27.816H27.8239H27.8319H27.8399H27.8479H27.8559H27.8639H27.8719H27.8799H27.8879H27.8959H27.9039H27.9119H27.9199H27.9279H27.9359H27.944H27.952H27.96H27.9681H27.9761H27.9841H27.9922H28.0002H28.0083H28.0163H28.0244H28.0324H28.0405H28.0486H28.0566H28.0647H28.0728H28.0809H28.0889H28.097H28.1051H28.1132H28.1213H28.1294H28.1375H28.1456H28.1537H28.1618H28.17H28.1781H28.1862H28.1943H28.2025H28.2106H28.2188H28.2269H28.235H28.2432H28.2514H28.2595H28.2677H28.2758H28.284H28.2922H28.3004H28.3086H28.3167H28.3249H28.3331H28.3413H28.3495H28.3577H28.366H28.3742H28.3824H28.3906H28.3988H28.4071H28.4153H28.4236H28.4318H28.44H28.4483H28.4566H28.4648H28.4731H28.4814H28.4896H28.4979H28.5062H28.5145H28.5228H28.5311H28.5394H28.5477H28.556H28.5643H28.5726H28.581H28.5893H28.5976H28.606H28.6143H28.6348L28.6552 4.23076C39.6437 5.2674 48.3616 13.9762 49.1922 24.7746L49.1935 24.7913V24.808L33.3973 51.8514ZM33.3973 51.8514L33.3828 51.8554M33.3973 51.8514L33.3828 51.8554M33.3828 51.8554C31.1712 52.4585 28.7692 52.8574 26.5796 52.8574C12.1708 52.8574 0.564967 41.2515 0.564967 26.8427C0.564967 12.4339 12.1708 0.828029 26.5796 0.828029V0.392029L33.3828 51.8554ZM48.7575 28.8774L49.1876 28.949L49.1935 28.9134V28.8774V28.869V28.8607V28.8523V28.844V28.8357V28.8274V28.8191V28.8107V28.8024V28.7941V28.7858V28.7775V28.7693V28.761V28.7527V28.7444V28.7361V28.7279V28.7196V28.7114V28.7031V28.6949V28.6866V28.6784V28.6701V28.6619V28.6537V28.6455V28.6372V28.629V28.6208V28.6126V28.6044V28.5962V28.588V28.5798V28.5716V28.5634V28.5553V28.5471V28.5389V28.5307V28.5226V28.5144V28.5063V28.4981V28.49V28.4818V28.4737V28.4655V28.4574V28.4493V28.4411V28.433V28.4249V28.4168V28.4087V28.4006V28.3925V28.3844V28.3763V28.3682V28.3601V28.352V28.3439V28.3358V28.3278V28.3197V28.3116V28.3036V28.2955V28.2874V28.2794V28.2713V28.2633V28.2552V28.2472V28.2392V28.2311V28.2231V28.2151V28.207V28.199V28.191V28.183V28.175V28.1669V28.1589V28.1509V28.1429V28.1349V28.1269V28.1189V28.111V28.103V28.095V28.087V28.079V28.0711V28.0631V28.0551V28.0471V28.0392V28.0312V28.0233V28.0153V28.0074V27.9994V27.9915V27.9835V27.9756V27.9676V27.9597V27.9518V27.9438V27.9359V27.928V27.9201V27.9121V27.9042V27.8963V27.8884V27.8805V27.8726V27.8647V27.8568V27.8489V27.841V27.8331V27.8252V27.8173V27.8094V27.8015V27.7936V27.7857V27.7778V27.77V27.7621V27.7542V27.7463V27.7385V27.7306V27.7227V27.7149V27.707V27.6991V27.6913V27.6834V27.6756V27.6677V27.6599V27.652V27.6442V27.6363V27.6285V27.6206V27.6128V27.605V27.5971V27.5893V27.5815V27.5736V27.5658V27.558V27.5502V27.5423V27.5345V27.5267V27.5189V27.5111V27.5032V27.4954V27.4876V27.4798V27.472V27.4642V27.4564V27.4486V27.4408V27.433V27.4252V27.4174V27.4096V27.4018V27.394V27.3862V27.3784V27.3706V27.3628V27.355V27.3472V27.3394V27.3317V27.3239V27.3161V27.3083V27.3005V27.2927V27.285V27.2772V27.2694V27.2616V27.2539V27.2461V27.2383V27.2305V27.2228V27.215V27.2072V27.1995V27.1917V27.1839V27.1762V27.1684V27.1606V27.1529V27.1451V27.1373V27.1296V27.1218V27.114V27.1063V27.0985V27.0908V27.083V27.0753V27.0675V27.0597V27.052V27.0442V27.0365V27.0287V27.021V27.0132V27.0055V26.9977V26.99V26.9822V26.9744V26.9667V26.9589V26.9512V26.9434V26.9357V26.9279V26.9202V26.9124V26.9047V26.8969V26.8892V26.8814V26.8737V26.8659V26.8582V26.8504V26.8427V26.8349V26.8272V26.8194V26.8117V26.8039V26.7962V26.7884V26.7807V26.7729V26.7652V26.7574V26.7497V26.7419V26.7342V26.7264V26.7187V26.7109V26.7032V26.6954V26.6877V26.6799V26.6722V26.6644V26.6567V26.6489V26.6412V26.6334V26.6256V26.6179V26.6101V26.6024V26.5946V26.5869V26.5791V26.5713V26.5636V26.5558V26.5481V26.5403V26.5325V26.5248V26.517V26.5092V26.5015V26.4937V26.4859V26.4782V26.4704V26.4626V26.4549V26.4471V26.4393V26.4315V26.4238V26.416V26.4082V26.4004V26.3926V26.3849V26.3771V26.3693V26.3615V26.3537V26.3459V26.3382V26.3304V26.3226V26.3148V26.307V26.2992V26.2914V26.2836V26.2758V26.268V26.2602V26.2524V26.2446V26.2368V26.229V26.2212V26.2134V26.2056V26.1978V26.19V26.1821V26.1743V26.1665V26.1587V26.1509V26.1431V26.1352V26.1274V26.1196V26.1117V26.1039V26.0961V26.0883V26.0804V26.0726V26.0647V26.0569V26.0491V26.0412V26.0334V26.0255V26.0177V26.0098V26.002V25.9941V25.9862V25.9784V25.9705V25.9627V25.9548V25.9469V25.9391V25.9312V25.9233V25.9154V25.9075V25.8997V25.8918V25.8839V25.876V25.8681V25.8602V25.8523V25.8444V25.8365V25.8286V25.8207V25.8128V25.8049V25.797V25.7891V25.7812V25.7733V25.7653V25.7574V25.7495V25.7416V25.7336V25.7257V25.7178V25.7098V25.7019V25.6939V25.686V25.678V25.6701V25.6621V25.6542V25.6462V25.6382V25.6303V25.6223V25.6143V25.6064V25.5984V25.5904V25.5824V25.5744V25.5664V25.5584L48.7575 28.8774Z" fill="#011839" stroke="#F9F9FE" stroke-width="0.872"/>
<path fill-rule="evenodd" clip-rule="evenodd" d="M28.2074 26.0289V21.5526C29.4282 21.5526 30.4456 22.5699 30.4456 23.7907C30.4456 24.4011 30.8525 24.8081 31.4629 24.8081C32.0733 24.8081 32.4802 24.4011 32.4802 23.7907C32.4802 21.3491 30.4456 19.3145 28.004 19.3145V18.2971C28.004 17.6867 27.597 17.2798 26.9866 17.2798C26.3762 17.2798 25.9693 17.6867 25.9693 18.2971V19.3145C23.5277 19.3145 21.493 21.3491 21.493 23.7907C21.493 26.2323 23.5277 28.267 25.9693 28.267V32.7433C24.7485 32.7433 23.7312 31.7259 23.7312 30.5051C23.7312 29.8947 23.3242 29.4878 22.7138 29.4878C22.1034 29.4878 21.6965 29.8947 21.6965 30.5051C21.6965 32.9467 23.7312 34.9814 26.1728 34.9814V35.9987C26.1728 36.6091 26.5797 37.0161 27.1901 37.0161C27.8005 37.0161 28.2074 36.6091 28.2074 35.9987V34.9814C30.649 34.9814 32.6837 32.9467 32.6837 30.5051C32.6837 28.0635 30.649 26.0289 28.2074 26.0289ZM26.1728 26.0289C24.952 26.0289 23.9346 25.0115 23.9346 23.7907C23.9346 22.5699 24.952 21.5526 26.1728 21.5526V26.0289ZM28.2074 32.7433V28.267C29.4282 28.267 30.4456 29.2843 30.4456 30.5051C30.4456 31.7259 29.4282 32.7433 28.2074 32.7433Z" fill="#011839"/>
<path d="M26.5803 42.3063C18.2381 42.3063 11.3203 35.5919 11.3203 27.0463" stroke="#08669C" stroke-width="2.5" stroke-miterlimit="10" stroke-linecap="round"/>
<path d="M25.1558 37.8303L32.8875 42.3066L25.1558 46.7829V37.8303Z" fill="#08669C"/>
<path d="M26.5801 11.9895C34.9222 11.9895 41.8401 18.7039 41.8401 27.2495C41.8401 27.453 41.8401 27.453 41.8401 27.6564" stroke="#08669C" stroke-width="2.5" stroke-miterlimit="10" stroke-linecap="round"/>
<path d="M27.8009 16.466L20.0692 11.9897L27.8009 7.51343V16.466Z" fill="#08669C"/>
</svg>
