<svg width="60" height="60" viewBox="0 0 60 60" fill="none" xmlns="http://www.w3.org/2000/svg">
<g clip-path="url(#clip0_0_218)">
<path d="M53.6016 20.0362L53.6293 20.3408L53.9305 20.3939C57.1548 20.9629 59.6 23.6094 59.6 27C59.6 30.5791 56.5791 33.6 53 33.6H50C49.4909 33.6 49.0977 33.432 48.8328 33.1672C48.568 32.9023 48.4 32.5091 48.4 32C48.4 31.4909 48.568 31.0977 48.8328 30.8328C49.0977 30.568 49.4909 30.4 50 30.4H53C53.9133 30.4 54.8069 30.003 55.4703 29.3949C56.134 28.7865 56.6 27.9355 56.6 27C56.6 25.1791 55.0209 23.6 53.2 23.6H46.4C45.8909 23.6 45.4977 23.432 45.2328 23.1672C44.968 22.9023 44.8 22.5091 44.8 22C44.8 21.4909 44.968 21.0977 45.2328 20.8328C45.4977 20.568 45.8909 20.4 46.4 20.4H50H50.4948L50.3911 19.9162C49.7561 16.9526 47.4165 14.8144 44.4285 14.601L44.4143 14.6H44.4C43.7786 14.6 43.1424 14.1202 42.9881 13.503L42.9883 13.5029L42.9846 13.4901C41.3367 7.72238 35.9827 3.6 30 3.6C24.0173 3.6 18.6633 7.72238 17.0154 13.4901L17.0152 13.49L17.0119 13.503C16.8576 14.1202 16.2214 14.6 15.6 14.6H15.5857L15.5715 14.601C12.5935 14.8137 10.0343 17.1467 9.60465 19.9392L9.53376 20.4H10H13.8C14.3091 20.4 14.7023 20.568 14.9672 20.8328C15.232 21.0977 15.4 21.4909 15.4 22C15.4 22.5091 15.232 22.9023 14.9672 23.1672C14.7023 23.432 14.3091 23.6 13.8 23.6H7C5.17909 23.6 3.6 25.1791 3.6 27C3.6 28.8209 5.17909 30.4 7 30.4H10C10.5091 30.4 10.9023 30.568 11.1672 30.8328C11.432 31.0977 11.6 31.4909 11.6 32C11.6 32.5091 11.432 32.9023 11.1672 33.1672C10.9023 33.432 10.5091 33.6 10 33.6H7C3.42091 33.6 0.4 30.5791 0.4 27C0.4 23.5909 2.85982 20.7722 6.04674 20.3973L6.36898 20.3593L6.39836 20.0362C6.78179 15.8185 10.0457 12.3604 14.0748 11.5929L14.2982 11.5504L14.3759 11.3367C16.7192 4.89275 22.9703 0.4 30 0.4C37.0297 0.4 43.2808 4.89275 45.6241 11.3367L45.7025 11.5525L45.9284 11.5935C50.1475 12.3607 53.2175 15.8111 53.6016 20.0362Z" fill="white" stroke="#0D6AA0" stroke-width="0.8"/>
<path d="M26 49.6V56C26 58.2 27.8 60 30 60C32.2 60 34 58.2 34 56V49.6C32.8 49.8 31.4 50 30 50C28.6 50 27.2 49.8 26 49.6Z" fill="white"/>
<path d="M30 18C22.2 18 16 24.2 16 32C16 39.8 22.2 46 30 46C37.8 46 44 39.8 44 32C44 24.2 37.8 18 30 18ZM29.8 36.8C29.4 37.2 28.8 37.4 28.4 37.4C28 37.4 27.4 37.2 27 36.8L23.8 33.6C23 32.8 23 31.6 23.8 30.8C24.6 30 25.8 30 26.6 30.8L28.4 32.6L33.6 27.4C34.4 26.6 35.6 26.6 36.4 27.4C37.2 28.2 37.2 29.4 36.4 30.2L29.8 36.8Z" fill="white"/>
</g>
<defs>
<clipPath id="clip0_0_218">
<rect width="60" height="60" fill="white"/>
</clipPath>
</defs>
</svg>
