<svg width="60" height="60" viewBox="0 0 60 60" fill="none" xmlns="http://www.w3.org/2000/svg">
<g clip-path="url(#clip0_0_82)">
<path d="M23.4062 10.0703L23.4651 10.4H23.8H58C58.5091 10.4 58.9023 10.568 59.1672 10.8328C59.432 11.0977 59.6 11.4909 59.6 12C59.6 12.5091 59.432 12.9023 59.1672 13.1672C58.9023 13.432 58.5091 13.6 58 13.6H54H53.6V14V20C53.6 20.5091 53.432 20.9023 53.1672 21.1672C52.9023 21.432 52.5091 21.6 52 21.6C51.4909 21.6 51.0977 21.432 50.8328 21.1672C50.568 20.9023 50.4 20.5091 50.4 20V14V13.6H50H46H45.6V14V20C45.6 20.5091 45.432 20.9023 45.1672 21.1672C44.9023 21.432 44.5091 21.6 44 21.6C43.4909 21.6 43.0977 21.432 42.8328 21.1672C42.568 20.9023 42.4 20.5091 42.4 20V14V13.6H42H23.8H23.4651L23.4062 13.9297C22.4381 19.351 17.7942 23.6 12 23.6C5.62091 23.6 0.4 18.3791 0.4 12C0.4 5.62091 5.62091 0.4 12 0.4C17.7942 0.4 22.4381 4.64898 23.4062 10.0703ZM3.6 12C3.6 16.6209 7.37909 20.4 12 20.4C16.6209 20.4 20.4 16.6209 20.4 12C20.4 7.37909 16.6209 3.6 12 3.6C7.37909 3.6 3.6 7.37909 3.6 12Z" fill="#011839" stroke="#F9F9FE" stroke-width="0.8"/>
<path d="M47.3486 34.3714L47.3601 34.3668L47.3712 34.3615L51.1595 32.5671C51.989 32.2416 52.9261 32.5924 53.2286 33.3486C53.5615 34.1807 53.2109 35.1248 52.4514 35.4286L52.44 35.4332L52.4288 35.4385L48.6288 37.2385L48.5662 37.2682L48.5172 37.3172C48.5058 37.3285 48.4565 37.3601 48.3342 37.3804C48.2212 37.3993 48.1023 37.4 48 37.4C47.67 37.4 47.3991 37.3186 47.1719 37.1672C46.9455 37.0162 46.74 36.7806 46.5654 36.4363C46.2428 35.6078 46.5937 34.6733 47.3486 34.3714Z" fill="#011839" stroke="#F9F9FE" stroke-width="0.8"/>
<path d="M52.6291 44.5615L52.6403 44.5668L52.6518 44.5714C53.4067 44.8733 53.7575 45.8078 53.435 46.6362C53.2603 46.9805 53.0549 47.2162 52.8285 47.3672C52.6013 47.5186 52.3304 47.6 52.0003 47.6C51.898 47.6 51.7792 47.5993 51.6661 47.5804C51.5439 47.5601 51.4945 47.5285 51.4832 47.5171L51.4342 47.4681L51.3716 47.4385L47.5716 45.6385L47.5604 45.6332L47.5489 45.6286C46.7894 45.3248 46.4389 44.3807 46.7717 43.5485C47.0742 42.7924 48.0114 42.4416 48.8409 42.767L52.6291 44.5615Z" fill="#011839" stroke="#F9F9FE" stroke-width="0.8"/>
<path d="M8.62912 34.3615L8.6403 34.3668L8.6518 34.3714C9.40668 34.6734 9.75755 35.6079 9.43496 36.4363C9.26032 36.7806 9.05487 37.0163 8.82847 37.1672C8.60127 37.3187 8.33036 37.4 8.00035 37.4C7.89805 37.4 7.77917 37.3993 7.66611 37.3805C7.54386 37.3601 7.49452 37.3285 7.48319 37.3172L7.4342 37.2682L7.37159 37.2385L3.57159 35.4385L3.5604 35.4332L3.54891 35.4286C2.78941 35.1248 2.43888 34.1808 2.77174 33.3486C3.07421 32.5924 4.01139 32.2416 4.84087 32.5671L8.62912 34.3615Z" fill="#011839" stroke="#F9F9FE" stroke-width="0.8"/>
<path d="M3.34856 44.5714L3.36005 44.5668L3.37124 44.5615L7.15947 42.7671C7.95865 42.4537 8.93414 42.7638 9.44018 43.5782C9.7531 44.403 9.40193 45.3284 8.65145 45.6286L8.63996 45.6332L8.62877 45.6385L4.82877 47.4385L4.76615 47.4682L4.71716 47.5172C4.70584 47.5285 4.6565 47.5601 4.53424 47.5804C4.42118 47.5993 4.30231 47.6 4.2 47.6C3.53449 47.6 2.89063 47.2719 2.56529 46.636C2.24289 45.8076 2.59376 44.8733 3.34856 44.5714Z" fill="#011839" stroke="#F9F9FE" stroke-width="0.8"/>
<path d="M44 40.8C44 31 35 23.2 24.8 25.2C18.6 26.4 13.6 31.4 12.4 37.6C10.4 47.8 18.2 56.8 28 56.8C32 56.8 35.4 55.4 38.2 53L44.6 59.4C45.4 60.2 46.6 60.2 47.4 59.4C48.2 58.6 48.2 57.4 47.4 56.6L41 50.2C42.8 47.6 44 44.4 44 40.8ZM27.8 45.6C27.4 46 26.8 46.2 26.4 46.2C26 46.2 25.4 46 25 45.6L21.8 42.4C21 41.6 21 40.4 21.8 39.6C22.6 38.8 23.8 38.8 24.6 39.6L26.4 41.4L31.6 36.2C32.4 35.4 33.6 35.4 34.4 36.2C35.2 37 35.2 38.2 34.4 39L27.8 45.6Z" fill="#0D6AA0"/>
</g>
<defs>
<clipPath id="clip0_0_82">
<rect width="60" height="60" fill="white"/>
</clipPath>
</defs>
</svg>
