<svg width="60" height="60" viewBox="0 0 60 60" fill="none" xmlns="http://www.w3.org/2000/svg">
<g clip-path="url(#clip0_0_100)">
<path d="M4 15.6H3.6V16V42C3.6 42.6909 3.83205 43.2977 4.26716 43.7328C4.70227 44.168 5.3091 44.4 6 44.4H22.6C23.1091 44.4 23.5023 44.568 23.7672 44.8328C24.032 45.0977 24.2 45.4909 24.2 46C24.2 46.5091 24.032 46.9023 23.7672 47.1672C23.5023 47.432 23.1091 47.6 22.6 47.6H6C2.82091 47.6 0.4 45.1791 0.4 42V6C0.4 2.82091 2.82091 0.4 6 0.4H46C49.1791 0.4 51.6 2.82091 51.6 6V24.6C51.6 25.1091 51.432 25.5023 51.1672 25.7672C50.9023 26.032 50.5091 26.2 50 26.2C49.4909 26.2 49.0977 26.032 48.8328 25.7672C48.568 25.5023 48.4 25.1091 48.4 24.6V16V15.6H48H4ZM3.6 12V12.4H4H48H48.4V12V6C48.4 5.3091 48.168 4.70227 47.7328 4.26716C47.2977 3.83205 46.6909 3.6 46 3.6H6C5.3091 3.6 4.70227 3.83205 4.26716 4.26716C3.83205 4.70227 3.6 5.3091 3.6 6V12Z" fill="#011839" stroke="#F9F9FE" stroke-width="0.8"/>
<path d="M21.6 36V36.4H22H22.6C23.1091 36.4 23.5023 36.568 23.7672 36.8328C24.032 37.0977 24.2 37.4909 24.2 38C24.2 38.5091 24.032 38.9023 23.7672 39.1672C23.5023 39.432 23.1091 39.6 22.6 39.6H13C10.4209 39.6 8.4 37.5791 8.4 35V25C8.4 22.4209 10.4209 20.4 13 20.4H39C39.5091 20.4 39.9023 20.568 40.1672 20.8328C40.432 21.0977 40.6 21.4909 40.6 22C40.6 22.5091 40.432 22.9023 40.1672 23.1672C39.9023 23.432 39.5091 23.6 39 23.6H22H21.6V24V36ZM18 36.4H18.4V36V24V23.6H18H13C12.6091 23.6 12.2523 23.732 11.9922 23.9922C11.732 24.2523 11.6 24.6091 11.6 25V35C11.6 35.3909 11.732 35.7477 11.9922 36.0078C12.2523 36.268 12.6091 36.4 13 36.4H18Z" fill="#011839" stroke="#F9F9FE" stroke-width="0.8"/>
<path d="M33 6.4H34C34.5091 6.4 34.9023 6.56795 35.1672 6.83284C35.432 7.09773 35.6 7.4909 35.6 8C35.6 8.5091 35.432 8.90227 35.1672 9.16716C34.9023 9.43205 34.5091 9.6 34 9.6H33C32.4909 9.6 32.0977 9.43205 31.8328 9.16716C31.568 8.90227 31.4 8.5091 31.4 8C31.4 7.4909 31.568 7.09773 31.8328 6.83284C32.0977 6.56795 32.4909 6.4 33 6.4Z" fill="#011839" stroke="#F9F9FE" stroke-width="0.8"/>
<path d="M41 6.4H42C42.5091 6.4 42.9023 6.56795 43.1672 6.83284C43.432 7.09773 43.6 7.4909 43.6 8C43.6 8.5091 43.432 8.90227 43.1672 9.16716C42.9023 9.43205 42.5091 9.6 42 9.6H41C40.4909 9.6 40.0977 9.43205 39.8328 9.16716C39.568 8.90227 39.4 8.5091 39.4 8C39.4 7.4909 39.568 7.09773 39.8328 6.83284C40.0977 6.56795 40.4909 6.4 41 6.4Z" fill="#011839" stroke="#F9F9FE" stroke-width="0.8"/>
<path d="M59.4 56.6L55.4 52.6C58 49.2 59.4 44.8 58.6 40.2C57.4 33.2 51.6 27.6 44.6 26.8C34.4 25.6 25.8 34.2 27 44.4C27.8 51.4 33.4 57.2 40.4 58.4C45 59.2 49.4 57.8 52.8 55.2L56.8 59.2C57.6 60 58.8 60 59.6 59.2C60.2 58.6 60.2 57.4 59.4 56.6ZM42.6 47.6C42.2 48 41.6 48.2 41.2 48.2C40.6 48.2 40.2 48 39.8 47.6L36.6 44.4C35.8 43.6 35.8 42.4 36.6 41.6C37.4 40.8 38.6 40.8 39.4 41.6L41.2 43.4L46.4 38.2C47.2 37.4 48.4 37.4 49.2 38.2C50 39 50 40.2 49.2 41L42.6 47.6Z" fill="#0D6AA0"/>
</g>
<defs>
<clipPath id="clip0_0_100">
<rect width="60" height="60" fill="white"/>
</clipPath>
</defs>
</svg>
