<svg width="60" height="60" viewBox="0 0 60 60" fill="none" xmlns="http://www.w3.org/2000/svg">
<g clip-path="url(#clip0_0_226)">
<path d="M6 0.4H54C57.1791 0.4 59.6 2.82091 59.6 6V38C59.6 41.1791 57.1791 43.6 54 43.6H48.6C48.0909 43.6 47.6977 43.432 47.4328 43.1672C47.168 42.9023 47 42.5091 47 42C47 41.4909 47.168 41.0977 47.4328 40.8328C47.6977 40.568 48.0909 40.4 48.6 40.4H54C54.6909 40.4 55.2977 40.168 55.7328 39.7328C56.168 39.2977 56.4 38.6909 56.4 38V6C56.4 5.3091 56.168 4.70227 55.7328 4.26716C55.2977 3.83205 54.6909 3.6 54 3.6H6C5.3091 3.6 4.70227 3.83205 4.26716 4.26716C3.83205 4.70227 3.6 5.3091 3.6 6V38C3.6 38.6909 3.83205 39.2977 4.26716 39.7328C4.70227 40.168 5.3091 40.4 6 40.4H11.4C11.9091 40.4 12.3023 40.568 12.5672 40.8328C12.832 41.0977 13 41.4909 13 42C13 42.5091 12.832 42.9023 12.5672 43.1672C12.3023 43.432 11.9091 43.6 11.4 43.6H6C2.82091 43.6 0.4 41.1791 0.4 38V6C0.4 2.82091 2.82091 0.4 6 0.4Z" fill="#011839" stroke="#F9F9FE" stroke-width="0.8"/>
<path d="M45.4832 12.2828L46.166 11.6H45.2003H42.0003C41.4912 11.6 41.0981 11.432 40.8332 11.1672C40.5683 10.9023 40.4003 10.5091 40.4003 10C40.4003 9.4909 40.5683 9.09773 40.8332 8.83284C41.0981 8.56795 41.4912 8.4 42.0003 8.4H50.0003C50.5094 8.4 50.9026 8.56795 51.1675 8.83284C51.4324 9.09773 51.6003 9.4909 51.6003 10V18C51.6003 18.5091 51.4324 18.9023 51.1675 19.1672C50.9026 19.432 50.5094 19.6 50.0003 19.6C49.4912 19.6 49.0981 19.432 48.8332 19.1672C48.5683 18.9023 48.4003 18.5091 48.4003 18V14.8V13.8343L47.7175 14.5172L36.5175 25.7172C35.8745 26.3602 34.9292 26.3609 34.2855 25.7195L28.4879 19.722L28.2172 19.4419L27.9301 19.7051L11.1301 35.1051L11.1236 35.111L11.1175 35.1172C10.7974 35.4372 10.3014 35.6 10.0003 35.6C9.60042 35.6 9.32674 35.5024 8.91868 35.3569C8.83628 35.3275 8.7484 35.2961 8.65289 35.2633C8.23384 34.6157 8.26544 33.7057 8.87783 33.0882L27.0717 16.2939L27.0775 16.2885L27.0832 16.2828C27.727 15.6391 28.6737 15.6391 29.3175 16.2828L35.1175 22.0828L35.4003 22.3657L35.6832 22.0828L45.4832 12.2828Z" fill="#011839" stroke="#F9F9FE" stroke-width="0.8"/>
<path d="M50 28.4C50.5091 28.4 50.9023 28.568 51.1672 28.8328C51.432 29.0977 51.6 29.4909 51.6 30C51.6 30.5091 51.432 30.9023 51.1672 31.1672C50.9023 31.432 50.5091 31.6 50 31.6H46C45.4909 31.6 45.0977 31.432 44.8328 31.1672C44.568 30.9023 44.4 30.5091 44.4 30C44.4 29.4909 44.568 29.0977 44.8328 28.8328C45.0977 28.568 45.4909 28.4 46 28.4H50Z" fill="#011839" stroke="#F9F9FE" stroke-width="0.8"/>
<path d="M20 11.6H10C9.4909 11.6 9.09773 11.432 8.83284 11.1672C8.56795 10.9023 8.4 10.5091 8.4 10C8.4 9.4909 8.56795 9.09773 8.83284 8.83284C9.09773 8.56795 9.4909 8.4 10 8.4H20C20.5091 8.4 20.9023 8.56795 21.1672 8.83284C21.432 9.09773 21.6 9.4909 21.6 10C21.6 10.5091 21.432 10.9023 21.1672 11.1672C20.9023 11.432 20.5091 11.6 20 11.6Z" fill="#011839" stroke="#F9F9FE" stroke-width="0.8"/>
<path d="M16 19.6H10C9.4909 19.6 9.09773 19.432 8.83284 19.1672C8.56795 18.9023 8.4 18.5091 8.4 18C8.4 17.4909 8.56795 17.0977 8.83284 16.8328C9.09773 16.568 9.4909 16.4 10 16.4H16C16.5091 16.4 16.9023 16.568 17.1672 16.8328C17.432 17.0977 17.6 17.4909 17.6 18C17.6 18.5091 17.432 18.9023 17.1672 19.1672C16.9023 19.432 16.5091 19.6 16 19.6Z" fill="#011839" stroke="#F9F9FE" stroke-width="0.8"/>
<path d="M30 32C22.2 32 16 38.2 16 46C16 53.8 22.2 60 30 60C37.8 60 44 53.8 44 46C44 38.2 37.8 32 30 32ZM30 50C29.6 50.4 29 50.6 28.6 50.6C28.2 50.6 27.6 50.4 27.2 50L24.6 47.4C23.8 46.6 23.8 45.4 24.6 44.6C25.4 43.8 26.6 43.8 27.4 44.6L28.6 45.8L32.6 41.8C33.4 41 34.6 41 35.4 41.8C36.2 42.6 36.2 43.8 35.4 44.6L30 50Z" fill="#0D6AA0"/>
</g>
<defs>
<clipPath id="clip0_0_226">
<rect width="60" height="60" fill="white"/>
</clipPath>
</defs>
</svg>
