<svg width="60" height="60" viewBox="0 0 60 60" fill="none" xmlns="http://www.w3.org/2000/svg">
<g clip-path="url(#clip0_0_125)">
<path d="M35.6 8V8.4H36H46C49.1791 8.4 51.6 10.8209 51.6 14V22.2C51.6 22.7091 51.432 23.1023 51.1672 23.3672C50.9023 23.632 50.5091 23.8 50 23.8C49.4909 23.8 49.0977 23.632 48.8328 23.3672C48.568 23.1023 48.4 22.7091 48.4 22.2V14C48.4 13.3091 48.168 12.7023 47.7328 12.2672C47.2977 11.832 46.6909 11.6 46 11.6H6C5.3091 11.6 4.70227 11.832 4.26716 12.2672C3.83205 12.7023 3.6 13.3091 3.6 14V28V28.4H4H22.2C22.7091 28.4 23.1023 28.568 23.3672 28.8328C23.632 29.0977 23.8 29.4909 23.8 30C23.8 30.5091 23.632 30.9023 23.3672 31.1672C23.1023 31.432 22.7091 31.6 22.2 31.6H14H13.6V32V34C13.6 34.5091 13.432 34.9023 13.1672 35.1672C12.9023 35.432 12.5091 35.6 12 35.6C11.4909 35.6 11.0977 35.432 10.8328 35.1672C10.568 34.9023 10.4 34.5091 10.4 34V32V31.6H10H4H3.6V32V42C3.6 42.6909 3.83205 43.2977 4.26716 43.7328C4.70227 44.168 5.3091 44.4 6 44.4H21.4C21.9091 44.4 22.3023 44.568 22.5672 44.8328C22.832 45.0977 23 45.4909 23 46C23 46.5091 22.832 46.9023 22.5672 47.1672C22.3023 47.432 21.9091 47.6 21.4 47.6H6C2.82091 47.6 0.4 45.1791 0.4 42V14C0.4 10.8209 2.82091 8.4 6 8.4H16H16.4V8V5C16.4 2.42091 18.4209 0.4 21 0.4H31C33.5791 0.4 35.6 2.42091 35.6 5V8ZM32 8.4H32.4V8V5C32.4 4.6091 32.268 4.25227 32.0078 3.99216C31.7477 3.73205 31.3909 3.6 31 3.6H21C20.6091 3.6 20.2523 3.73205 19.9922 3.99216C19.732 4.25227 19.6 4.6091 19.6 5V8V8.4H20H32Z" fill="#011839" stroke="#F9F9FE" stroke-width="0.8"/>
<path d="M17.4 20C17.4 19.4909 17.568 19.0977 17.8328 18.8328C18.0977 18.568 18.4909 18.4 19 18.4H21C21.5091 18.4 21.9023 18.568 22.1672 18.8328C22.432 19.0977 22.6 19.4909 22.6 20C22.6 20.5091 22.432 20.9023 22.1672 21.1672C21.9023 21.432 21.5091 21.6 21 21.6H19C18.4909 21.6 18.0977 21.432 17.8328 21.1672C17.568 20.9023 17.4 20.5091 17.4 20Z" fill="#011839" stroke="#F9F9FE" stroke-width="0.8"/>
<path d="M31 18.4H33C33.5091 18.4 33.9023 18.568 34.1672 18.8328C34.432 19.0977 34.6 19.4909 34.6 20C34.6 20.5091 34.432 20.9023 34.1672 21.1672C33.9023 21.432 33.5091 21.6 33 21.6H31C30.4909 21.6 30.0977 21.432 29.8328 21.1672C29.568 20.9023 29.4 20.5091 29.4 20C29.4 19.4909 29.568 19.0977 29.8328 18.8328C30.0977 18.568 30.4909 18.4 31 18.4Z" fill="#011839" stroke="#F9F9FE" stroke-width="0.8"/>
<path d="M59.4 56.6L53.4 50.6C56 47.2 57.4 42.8 56.6 38.2C55.4 31.2 49.6 25.6 42.6 24.8C32.4 23.6 23.8 32.2 25 42.4C25.8 49.4 31.4 55.2 38.4 56.4C43 57.2 47.4 55.8 50.8 53.2L56.8 59.2C57.6 60 58.8 60 59.6 59.2C60.2 58.6 60.2 57.4 59.4 56.6ZM40.6 45.6C40.2 46 39.6 46.2 39.2 46.2C38.6 46.2 38.2 46 37.8 45.6L34.6 42.4C33.8 41.6 33.8 40.4 34.6 39.6C35.4 38.8 36.6 38.8 37.4 39.6L39.2 41.4L44.4 36.2C45.2 35.4 46.4 35.4 47.2 36.2C48 37 48 38.2 47.2 39L40.6 45.6Z" fill="#0D6AA0"/>
</g>
<defs>
<clipPath id="clip0_0_125">
<rect width="60" height="60" fill="white"/>
</clipPath>
</defs>
</svg>
