<svg width="65" height="65" viewBox="0 0 65 65" fill="none" xmlns="http://www.w3.org/2000/svg">
<g clip-path="url(#clip0_0_132)">
<path d="M9.10667 33.5833V33.1433H8.66667H7.58333C3.70967 33.1433 0.44 29.8737 0.44 26C0.44 22.1263 3.70967 18.8567 7.58333 18.8567H8.66667H9.10667V18.4167V10.8333C9.10667 10.2833 9.28808 9.85917 9.57363 9.57363C9.85917 9.28808 10.2833 9.10667 10.8333 9.10667H18.4167H18.8567V8.66667V7.58333C18.8567 3.70967 22.1263 0.44 26 0.44C29.8737 0.44 33.1433 3.70967 33.1433 7.58333V8.66667V9.10667H33.5833H45.5C46.05 9.10667 46.4742 9.28808 46.7597 9.57363C47.0452 9.85917 47.2267 10.2833 47.2267 10.8333V20.5833C47.2267 21.1333 47.0452 21.5575 46.7597 21.843C46.4742 22.1286 46.05 22.31 45.5 22.31H42.25C40.2737 22.31 38.56 24.0237 38.56 26V26.0193C38.56 26.2205 38.5599 26.4152 38.5931 26.614C38.6282 26.8248 38.697 27.0248 38.8142 27.2621C39.1337 28.0892 38.6349 29.1388 37.7533 29.4915C36.932 29.82 35.8842 29.3334 35.5192 28.4626C35.303 27.5973 35.1067 26.7937 35.1067 26C35.1067 22.1263 38.3763 18.8567 42.25 18.8567H43.3333H43.7733V18.4167V13V12.56H43.3333H31.4167C30.8667 12.56 30.4425 12.3786 30.157 12.093C29.8714 11.8075 29.69 11.3833 29.69 10.8333V7.58333C29.69 5.60699 27.9763 3.89333 26 3.89333C24.0237 3.89333 22.31 5.60699 22.31 7.58333V10.8333C22.31 11.3833 22.1286 11.8075 21.843 12.093C21.5575 12.3786 21.1333 12.56 20.5833 12.56H13H12.56V13V20.5833C12.56 21.1333 12.3786 21.5575 12.093 21.843C11.8075 22.1286 11.3833 22.31 10.8333 22.31H7.58333C5.60699 22.31 3.89333 24.0237 3.89333 26C3.89333 27.9763 5.60699 29.69 7.58333 29.69H10.8333C11.3833 29.69 11.8075 29.8714 12.093 30.157C12.3786 30.4425 12.56 30.8667 12.56 31.4167V43.3333V43.7733H13H18.4167H18.8567V43.3333V42.25C18.8567 38.3763 22.1263 35.1067 26 35.1067C26.7937 35.1067 27.5973 35.303 28.4626 35.5192C29.3334 35.8842 29.82 36.932 29.4915 37.7533C29.1366 38.6404 28.0761 39.1399 27.2467 38.8081C24.755 37.8114 22.31 39.8119 22.31 42.25V45.5C22.31 46.05 22.1286 46.4742 21.843 46.7597C21.5575 47.0452 21.1333 47.2267 20.5833 47.2267H10.8333C10.2833 47.2267 9.85917 47.0452 9.57363 46.7597C9.28808 46.4742 9.10667 46.05 9.10667 45.5V33.5833Z" fill="#011839" stroke="#F9F9FE" stroke-width="0.88"/>
<path d="M47.6663 30.3334C38.133 30.3334 30.333 38.1334 30.333 47.6667C30.333 57.2 38.133 65 47.6663 65C57.1997 65 64.9997 57.2 64.9997 47.6667C64.9997 38.1334 57.1997 30.3334 47.6663 30.3334ZM47.0163 53.5167C46.583 53.95 45.933 54.1667 45.4997 54.1667C45.0663 54.1667 44.4163 53.95 43.983 53.5167L39.6497 49.1834C38.783 48.3167 38.783 47.0167 39.6497 46.15C40.5163 45.2834 41.8163 45.2834 42.683 46.15L45.4997 48.9667L52.6497 41.8167C53.5163 40.95 54.8163 40.95 55.683 41.8167C56.5497 42.6834 56.5497 43.9834 55.683 44.85L47.0163 53.5167Z" fill="#0D6AA0"/>
</g>
<defs>
<clipPath id="clip0_0_132">
<rect width="65" height="65" fill="white"/>
</clipPath>
</defs>
</svg>
