<svg width="28" height="27" viewBox="0 0 28 27" fill="none" xmlns="http://www.w3.org/2000/svg">
<circle cx="13.9182" cy="13.3059" r="13.3059" fill="url(#paint0_linear_0_268)"/>
<path d="M17.1256 6.35608H10.7102C8.64658 6.35608 6.9679 8.03477 6.9679 10.0984V16.5137C6.9679 18.5773 8.64658 20.256 10.7102 20.256H17.1256C19.1892 20.256 20.8679 18.5773 20.8679 16.5137V10.0984C20.8679 8.03477 19.1892 6.35608 17.1256 6.35608ZM19.7986 16.5137C19.7986 17.9877 18.5995 19.1868 17.1256 19.1868H10.7102C9.23626 19.1868 8.03712 17.9877 8.03712 16.5137V10.0984C8.03712 8.62445 9.23626 7.42531 10.7102 7.42531H17.1256C18.5995 7.42531 19.7986 8.62445 19.7986 10.0984V16.5137ZM13.9179 10.0984C12.1488 10.0984 10.7102 11.537 10.7102 13.3061C10.7102 15.0751 12.1488 16.5137 13.9179 16.5137C15.6869 16.5137 17.1256 15.0751 17.1256 13.3061C17.1256 11.537 15.6869 10.0984 13.9179 10.0984ZM13.9179 15.4445C12.7385 15.4445 11.7794 14.4854 11.7794 13.3061C11.7794 12.1267 12.7385 11.1676 13.9179 11.1676C15.0972 11.1676 16.0563 12.1267 16.0563 13.3061C16.0563 14.4854 15.0972 15.4445 13.9179 15.4445ZM18.1948 9.83107C18.1948 10.2737 17.8355 10.633 17.3929 10.633C16.9502 10.633 16.5909 10.2737 16.5909 9.83107C16.5909 9.38841 16.9502 9.02915 17.3929 9.02915C17.8355 9.02915 18.1948 9.38841 18.1948 9.83107Z" fill="white"/>
<defs>
<linearGradient id="paint0_linear_0_268" x1="17.9417" y1="46.4546" x2="55.7236" y2="9.2197" gradientUnits="userSpaceOnUse">
<stop stop-color="white"/>
<stop offset="0.147864" stop-color="#F6640E"/>
<stop offset="0.443974" stop-color="#BA03A7"/>
<stop offset="0.733337" stop-color="#6A01B9"/>
<stop offset="1" stop-color="#6B01B9"/>
</linearGradient>
</defs>
</svg>
