<svg width="27" height="27" viewBox="0 0 27 27" fill="none" xmlns="http://www.w3.org/2000/svg">
<circle cx="13.5306" cy="13.3059" r="13.3059" fill="#2063C9"/>
<path d="M6.87686 8.19859C6.87686 7.75057 7.02671 7.38096 7.32639 7.08977C7.62607 6.79855 8.01566 6.65295 8.49515 6.65295C8.96609 6.65295 9.3471 6.79631 9.63823 7.08305C9.93791 7.37873 10.0878 7.76401 10.0878 8.23891C10.0878 8.66901 9.9422 9.02741 9.65107 9.31414C9.35139 9.60983 8.95752 9.75767 8.46946 9.75767H8.45662C7.98569 9.75767 7.60467 9.60983 7.31354 9.31414C7.02242 9.01846 6.87686 8.6466 6.87686 8.19859ZM7.04383 19.9589V10.9807H9.8951V19.9589H7.04383ZM11.4749 19.9589H14.3261V14.9456C14.3261 14.632 14.3604 14.3901 14.4289 14.2199C14.5488 13.9152 14.7307 13.6576 14.9747 13.447C15.2188 13.2365 15.5249 13.1312 15.8931 13.1312C16.852 13.1312 17.3315 13.8077 17.3315 15.1607V19.9589H20.1828V14.8112C20.1828 13.4851 19.8831 12.4793 19.2838 11.7939C18.6844 11.1084 17.8924 10.7657 16.9077 10.7657C15.8031 10.7657 14.9426 11.263 14.3261 12.2576V12.2845H14.3133L14.3261 12.2576V10.9807H11.4749C11.492 11.2675 11.5005 12.159 11.5005 13.6554C11.5005 15.1517 11.492 17.2529 11.4749 19.9589Z" fill="white"/>
</svg>
