<svg width="28" height="27" viewBox="0 0 28 27" fill="none" xmlns="http://www.w3.org/2000/svg">
<circle cx="14.1429" cy="13.3059" r="13.3059" fill="#2063C9"/>
<path d="M20.7407 10.2776C20.7613 10.3601 20.7717 10.4941 20.7717 10.6798C20.7717 11.7729 20.5654 12.8661 20.1529 13.9592C19.7404 15.0318 19.1526 16.0218 18.3894 16.9293C17.6469 17.8162 16.6775 18.5381 15.4812 19.095C14.2849 19.6519 12.9649 19.9303 11.5211 19.9303C9.70606 19.9303 8.0457 19.4456 6.54004 18.4762C6.76692 18.4968 7.02474 18.5072 7.3135 18.5072C8.81916 18.5072 10.1701 18.0431 11.3664 17.1149C10.6445 17.1149 10.0051 16.9087 9.44824 16.4962C8.91198 16.063 8.54072 15.5268 8.33446 14.8874C8.54072 14.908 8.73666 14.9183 8.92229 14.9183C9.21105 14.9183 9.4998 14.8874 9.78856 14.8255C9.29355 14.7224 8.8501 14.5161 8.45821 14.2067C8.06633 13.8973 7.75695 13.5261 7.53006 13.093C7.30318 12.6392 7.18974 12.1545 7.18974 11.6389V11.577C7.6435 11.8451 8.1282 11.9895 8.64384 12.0101C7.67444 11.3501 7.18974 10.4426 7.18974 9.28754C7.18974 8.71003 7.34443 8.16345 7.65382 7.64781C8.45821 8.65846 9.43793 9.46286 10.593 10.061C11.7686 10.6591 13.0165 10.9891 14.3365 11.051C14.2952 10.8035 14.2746 10.556 14.2746 10.3085C14.2746 9.42161 14.584 8.65846 15.2028 8.01907C15.8422 7.37968 16.6053 7.05998 17.4922 7.05998C18.441 7.05998 19.2351 7.40031 19.8744 8.08095C20.617 7.93657 21.3079 7.67875 21.9473 7.30749C21.6998 8.07064 21.2254 8.66878 20.5241 9.10191C21.1429 9.01941 21.7617 8.84409 22.3804 8.57596C21.9267 9.23598 21.3801 9.80318 20.7407 10.2776Z" fill="white"/>
</svg>
